<svg xmlns="http://www.w3.org/2000/svg" width="25.429" height="18.163" viewBox="0 0 25.429 18.163">
  <g id="Icon_ion-ios-card" data-name="Icon ion-ios-card" transform="translate(-2.25 -6.75)">
    <path id="Path_10517" data-name="Path 10517" d="M27.679,8.566A1.822,1.822,0,0,0,25.862,6.75H4.066A1.822,1.822,0,0,0,2.25,8.566v2.725H27.679Z" fill="#292929"/>
    <path id="Path_10518" data-name="Path 10518" d="M2.25,24.832a1.822,1.822,0,0,0,1.816,1.816h21.8a1.822,1.822,0,0,0,1.816-1.816V15.75H2.25Zm8.06-2.725h9.309a.795.795,0,0,1,0,1.589H10.31a.795.795,0,1,1,0-1.589Zm-4.087,0H6.9a.795.795,0,0,1,0,1.589H6.223a.795.795,0,0,1,0-1.589Z" transform="translate(0 -1.735)" fill="#292929"/>
  </g>
</svg>
