<svg xmlns="http://www.w3.org/2000/svg" width="28.156" height="25.092" viewBox="0 0 28.156 25.092">
  <g id="Icon_ion-cart-outline" data-name="Icon ion-cart-outline" transform="translate(0.9 0.9)">
    <path id="Path_10466" data-name="Path 10466" d="M13.367,29.184a1.059,1.059,0,1,1-1.059-1.059A1.059,1.059,0,0,1,13.367,29.184Z" transform="translate(-3.839 -6.95)" fill="none" stroke="#fff" stroke-linecap="round" stroke-linejoin="round" stroke-width="1.8"/>
    <path id="Path_10467" data-name="Path 10467" d="M29.117,29.184a1.059,1.059,0,1,1-1.059-1.059A1.059,1.059,0,0,1,29.117,29.184Z" transform="translate(-4.767 -6.95)" fill="none" stroke="#fff" stroke-linecap="round" stroke-linejoin="round" stroke-width="1.8"/>
    <path id="Path_10468" data-name="Path 10468" d="M3.375,5.625H7.61l3.176,18h16.94" transform="translate(-3.375 -5.625)" fill="none" stroke="#fff" stroke-linecap="round" stroke-linejoin="round" stroke-width="1.8"/>
    <path id="Path_10469" data-name="Path 10469" d="M11.117,19.587H27.623a.529.529,0,0,0,.519-.425l1.906-9.529A.529.529,0,0,0,29.529,9H9" transform="translate(-3.706 -5.824)" fill="none" stroke="#fff" stroke-linecap="round" stroke-linejoin="round" stroke-width="1.8"/>
  </g>
</svg>
