<svg xmlns="http://www.w3.org/2000/svg" width="25.386" height="23.292" viewBox="0 0 25.386 23.292">
  <path id="Icon_material-outline-favorite-border" data-name="Icon material-outline-favorite-border" d="M21.405,4.5a7.6,7.6,0,0,0-5.712,2.653A7.6,7.6,0,0,0,9.981,4.5,6.913,6.913,0,0,0,3,11.481c0,4.8,4.316,8.708,10.853,14.648l1.841,1.663,1.841-1.676c6.537-5.928,10.853-9.837,10.853-14.635A6.913,6.913,0,0,0,21.405,4.5ZM15.82,24.238l-.127.127-.127-.127C9.524,18.767,5.539,15.15,5.539,11.481A4.338,4.338,0,0,1,9.981,7.039a4.962,4.962,0,0,1,4.531,3h2.374a4.931,4.931,0,0,1,4.519-3,4.338,4.338,0,0,1,4.443,4.443C25.848,15.15,21.862,18.767,15.82,24.238Z" transform="translate(-3 -4.5)" fill="#fff"/>
</svg>
