<svg id="Icon_material-outline-account-circle" data-name="Icon material-outline-account-circle" xmlns="http://www.w3.org/2000/svg" width="23.292" height="23.292" viewBox="0 0 23.292 23.292">
  <path id="Path_10464" data-name="Path 10464" d="M14.646,3A11.646,11.646,0,1,0,26.292,14.646,11.65,11.65,0,0,0,14.646,3ZM9.231,22.216a9.267,9.267,0,0,1,10.831,0,9.267,9.267,0,0,1-10.831,0ZM21.8,20.609a11.584,11.584,0,0,0-14.3,0,9.317,9.317,0,1,1,14.3,0Z" transform="translate(-3 -3)" fill="#fff"/>
  <path id="Path_10465" data-name="Path 10465" d="M16.826,9A4.076,4.076,0,1,0,20.9,13.076,4.081,4.081,0,0,0,16.826,9Zm0,5.823a1.747,1.747,0,1,1,1.747-1.747A1.745,1.745,0,0,1,16.826,14.823Z" transform="translate(-5.18 -4.342)" fill="#fff"/>
</svg>
