<svg id="Group_66" data-name="Group 66" xmlns="http://www.w3.org/2000/svg" xmlns:xlink="http://www.w3.org/1999/xlink" width="23.751" height="21.727" viewBox="0 0 23.751 21.727">
  <defs>
    <clipPath id="clip-path">
      <rect id="Rectangle_6243" data-name="Rectangle 6243" width="23.751" height="21.727" fill="none" stroke="#292929" stroke-width="1"/>
    </clipPath>
  </defs>
  <g id="Group_65" data-name="Group 65" clip-path="url(#clip-path)">
    <path id="Path_10509" data-name="Path 10509" d="M6,17.833s-.4-3.12,6.288-6.052C18.588,9.023,18.209,6,18.209,6l7.438,3.347s.379,3.023-5.917,5.781c-6.691,2.932-6.288,6.052-6.288,6.052Z" transform="translate(-5.546 -5.546)" fill="none" stroke="#292929" stroke-linecap="round" stroke-linejoin="round" stroke-width="1"/>
    <path id="Path_10510" data-name="Path 10510" d="M66.689,120.345l.721.343s.379,3.023-5.917,5.781C54.8,129.4,55.2,132.522,55.2,132.522l-7.438-3.347s-.114-.074.032-.576" transform="translate(-44.117 -111.249)" fill="none" stroke="#292929" stroke-linecap="round" stroke-linejoin="round" stroke-width="1"/>
    <path id="Path_10511" data-name="Path 10511" d="M45.567,82.409l.718.391s.379,3.022-5.917,5.781c-6.691,2.932-6.288,6.052-6.288,6.052l-7.438-3.347s-.113-.065.026-.553" transform="translate(-24.588 -76.18)" fill="none" stroke="#292929" stroke-linecap="round" stroke-linejoin="round" stroke-width="1"/>
    <path id="Path_10512" data-name="Path 10512" d="M109.847,89.375a1.526,1.526,0,0,0-1.286.67.82.82,0,0,0,.287,1.217c.944.346,1.611-.793,2.37-1.111.7-.293,1.7.157,1.252,1.025a2.06,2.06,0,0,1-1.4.947" transform="translate(-100.22 -82.619)" fill="none" stroke="#292929" stroke-linecap="round" stroke-linejoin="round" stroke-width="1"/>
    <line id="Line_56" data-name="Line 56" x1="0.473" y1="0.221" transform="translate(12.007 8.894)" fill="none" stroke="#292929" stroke-linecap="round" stroke-linejoin="round" stroke-width="1"/>
    <line id="Line_57" data-name="Line 57" x1="0.47" y1="0.219" transform="translate(8.004 7.026)" fill="none" stroke="#292929" stroke-linecap="round" stroke-linejoin="round" stroke-width="1"/>
    <path id="Path_10513" data-name="Path 10513" d="M155,36.851a2.849,2.849,0,0,1-2.8.274h0" transform="translate(-140.698 -34.066)" fill="none" stroke="#292929" stroke-linecap="round" stroke-linejoin="round" stroke-width="1"/>
    <path id="Path_10514" data-name="Path 10514" d="M228.012,54.061a2.852,2.852,0,0,0,1.621,2.418h0" transform="translate(-210.777 -49.975)" fill="none" stroke="#292929" stroke-linecap="round" stroke-linejoin="round" stroke-width="1"/>
    <path id="Path_10515" data-name="Path 10515" d="M80.952,166.661a2.847,2.847,0,0,1,3.01-.138" transform="translate(-74.833 -153.599)" fill="none" stroke="#292929" stroke-linecap="round" stroke-linejoin="round" stroke-width="1"/>
    <path id="Path_10516" data-name="Path 10516" d="M23.981,128.94a2.859,2.859,0,0,0-1.618-2.239h0" transform="translate(-20.672 -117.124)" fill="none" stroke="#292929" stroke-linecap="round" stroke-linejoin="round" stroke-width="1"/>
  </g>
</svg>
