<svg xmlns="http://www.w3.org/2000/svg" width="216.781" height="48.219" viewBox="0 0 216.781 48.219">
  <g id="Untitled-1" transform="translate(0 0)">
    <g id="Group_3" data-name="Group 3" transform="translate(0 27.984)">
      <path id="Path_10470" data-name="Path 10470" d="M.874,106.941a.838.838,0,0,1-.857-1.024L2.984,89.5a1.294,1.294,0,0,1,1.227-1.024H17.367a3.942,3.942,0,0,1,4.025,4.816l-.757,4.2a6.038,6.038,0,0,1-3.329,4.216.223.223,0,0,0-.125.294l2.168,3.774a.745.745,0,0,1-.654,1.12c-1.813,0-2.937.057-3.677.047-1.264.02-1.683-.034-1.913-.493l-1.984-3.872a.509.509,0,0,0-.468-.272l-4.211,0a.259.259,0,0,0-.245.206l-.615,3.405a1.293,1.293,0,0,1-1.228,1.024H.874Zm6.235-9.469a.168.168,0,0,0,.171.206h6.808a1.155,1.155,0,0,0,1.093-.911l.5-2.761a.748.748,0,0,0-.764-.914H8.109a.259.259,0,0,0-.245.206l-.755,4.174Z" transform="translate(0 -88.432)" fill="#fff"/>
      <path id="Path_10471" data-name="Path 10471" d="M89.455,93.155l-1.6,8.881a6.077,6.077,0,0,1-5.767,4.814H71.439a3.943,3.943,0,0,1-4.028-4.814l1.6-8.881a6.077,6.077,0,0,1,5.767-4.814H85.427A3.943,3.943,0,0,1,89.455,93.155Zm-5.694.566a.5.5,0,0,0-.515-.615H75.233a.776.776,0,0,0-.737.615L73.107,101.4a.5.5,0,0,0,.514.615h8.016a.776.776,0,0,0,.737-.615Z" transform="translate(-46.004 -88.342)" fill="#fff"/>
      <path id="Path_10472" data-name="Path 10472" d="M130.644,105.737l10.684-16.188a2.512,2.512,0,0,1,2.18-.95v.017a.026.026,0,0,1,.012,0V88.6c.26-.01.537-.007.84,0h.14c.108,0,.2,0,.314,0,.387,0,.81.01,1.3.01a1.348,1.348,0,0,1,1.259.943l5.279,16.189a1,1,0,0,1-.152.857.933.933,0,0,1-.737.424h-4.209a.638.638,0,0,1-.62-.47l-.47-1.526h-8.908l-.36.554-.693.98a1.1,1.1,0,0,1-.865.465h-4.444a.72.72,0,0,1-.684-.424.886.886,0,0,1,.135-.86Zm9.795-5.113h4.672l-1.519-4.809Z" transform="translate(-89.127 -88.512)" fill="#fff"/>
      <path id="Path_10473" data-name="Path 10473" d="M217.46,89.552l-.48,2.651a1.294,1.294,0,0,1-1.227,1.024h-5.091a.258.258,0,0,0-.245.206l-2.264,12.521a1.293,1.293,0,0,1-1.227,1.024h-3.481a.838.838,0,0,1-.857-1.024l2.263-12.521a.167.167,0,0,0-.171-.206h-5.091a.838.838,0,0,1-.857-1.024l.478-2.651a1.293,1.293,0,0,1,1.228-1.024H216.6a.839.839,0,0,1,.857,1.024Z" transform="translate(-135.768 -88.469)" fill="#fff"/>
      <path id="Path_10474" data-name="Path 10474" d="M238.932,105.737l10.684-16.188a2.512,2.512,0,0,1,2.18-.95v.017a.026.026,0,0,1,.012,0V88.6c.26-.01.537-.007.84,0h.14c.108,0,.2,0,.314,0,.387,0,.811.01,1.3.01a1.348,1.348,0,0,1,1.259.943l5.279,16.189a1,1,0,0,1-.152.857.933.933,0,0,1-.737.424h-4.209a.638.638,0,0,1-.62-.47l-.47-1.526h-8.908l-.36.554-.693.98a1.1,1.1,0,0,1-.865.465h-4.444a.72.72,0,0,1-.684-.424.886.886,0,0,1,.135-.86Zm9.795-5.113H253.4l-1.519-4.809-3.153,4.809Z" transform="translate(-163.113 -88.512)" fill="#fff"/>
    </g>
    <g id="Group_4" data-name="Group 4" transform="translate(151.175 28.026)">
      <path id="Path_10475" data-name="Path 10475" d="M507.786,89.335l-9.3,16.928a1.3,1.3,0,0,1-1.1.676h-3.65a.834.834,0,0,1-.857-.669l-1.639-8.4a.264.264,0,0,0-.485-.088l-4.723,8.489a1.3,1.3,0,0,1-1.1.669h-3.65a.833.833,0,0,1-.857-.676l-3.18-16.928a.752.752,0,0,1,.737-.823H482.3a.832.832,0,0,1,.857.671l1.654,8.572a.265.265,0,0,0,.488.088l4.774-8.695a1.3,1.3,0,0,1,1.1-.676h3a.833.833,0,0,1,.857.673l1.617,8.6a.265.265,0,0,0,.488.09l4.8-8.66a1.3,1.3,0,0,1,1.1-.671h4.316a.519.519,0,0,1,.431.826Z" transform="translate(-477.238 -88.473)" fill="#fff"/>
      <path id="Path_10476" data-name="Path 10476" d="M555.436,105.737,566.12,89.548a2.512,2.512,0,0,1,2.18-.95v.017a.027.027,0,0,1,.012,0V88.6c.26-.01.537-.007.84,0h.14c.108,0,.2,0,.314,0,.387,0,.81.01,1.3.01a1.348,1.348,0,0,1,1.259.943l5.28,16.189a1,1,0,0,1-.152.857.934.934,0,0,1-.738.424h-4.209a.638.638,0,0,1-.62-.47l-.471-1.526h-8.907l-.36.554-.693.98a1.1,1.1,0,0,1-.865.465h-4.444a.719.719,0,0,1-.684-.424.887.887,0,0,1,.135-.86Zm9.795-5.113H569.9l-1.519-4.809-3.153,4.809Z" transform="translate(-530.533 -88.553)" fill="#fff"/>
      <path id="Path_10477" data-name="Path 10477" d="M643.363,89.449,634.97,100.2l-.225.5-.948,5.247a1.293,1.293,0,0,1-1.227,1.024h-3.481a.838.838,0,0,1-.857-1.024l.948-5.247c-.02-.186-.039-.363-.061-.549l-4.49-10.706a.731.731,0,0,1,.706-.926h4.415a.832.832,0,0,1,.8.5l2.283,5.441a.267.267,0,0,0,.451.071l4.3-5.512a1.285,1.285,0,0,1,.989-.5h4.415a.539.539,0,0,1,.372.928Z" transform="translate(-577.911 -88.505)" fill="#fff"/>
    </g>
    <g id="Group_5" data-name="Group 5" transform="translate(103.651 0)">
      <path id="Path_10478" data-name="Path 10478" d="M454.525,14.283l-1.67-.595.852-1.432-1.61-3.38-1.4-.305.417-1.322-2.156-2.48-1.287-.2.153-.814L445.366,2.1l-1.244.047-.256-.642c-3.851-.994-8.162.618-11.417,3.083A33,33,0,0,0,425.1,12.8c-4.626,7.049-8.213,16.8-9.653,27.571a73.815,73.815,0,0,0-.656,8.677h5.547a60.913,60.913,0,0,1,.554-8.8c1.184-8.864,4.073-16.892,7.8-22.7,3.757-5.884,8.375-9.522,12.968-9.522,5.887,0,9.168,4.89,10.889,11.032h2.139l.75-.892-.9-3.873Z" transform="translate(-387.045 -0.826)" fill="#dd4d05"/>
      <path id="Path_10479" data-name="Path 10479" d="M378.273.117c-1.747-.055-3.527-.1-3.527-.1l-.809.391L373.058,0l-5.7.141-1.84.571-.673-.423-5.18.438-1.346.524-.639-.376a37.326,37.326,0,0,0-5.709.72,25.183,25.183,0,0,0-3.681,1.267l-.085.712-1.091.047a16.743,16.743,0,0,0-3.681,2.48l-.077,1.087a6.2,6.2,0,0,0-1.551.509c-.273.227-2.769,2.856-2.769,2.856l.307,1.643s-1.687.344-1.781.587-2.582,4.029-2.582,4.029l.886,1.69s-2.07.524-2.275.868-2.036,4.741-2.036,4.741l1.593,1.831a16.956,16.956,0,0,0-2.7,1.244c-.043.219-1.44,5.046-1.44,5.046l1.713.767-.162,1.3a18.824,18.824,0,0,0-2.19,1.056c-.06.133-.784,5.242-.784,5.242l1.431.063.383.415-.221,2.019-1.781.782-.187,4.342h2.164c-.017-.016-.034-.039-.051-.055-.145-.258-.46-.25-.75-.219-.2.016-.392.047-.579.078a1.838,1.838,0,0,0-.2.031l.187-4.147,1.755-.775.008-.039,1.849-.806-.426,5.211-1.789.72h11.869l-.579-.352.545-5.539,2.573,2.1,2.462-1.041-.136,4.835h1.627l.162-5.43,6.049-2.339q-.345,2.875-.469,5.735l-5.572,2.034h6.041a75.617,75.617,0,0,1,.665-8.677c1.457-10.906,5.1-20.8,9.807-27.97,4.047-6.15,8.9-10.32,13.854-11.454Zm-11.988,7.8-4,.665,2.565-3.106,4.141-.579a34.086,34.086,0,0,0-2.709,3.02ZM342.684,19.8l-2.65,1.048,1.985-4.248,2.837-1.1,2.445,1.565-2.19,4.569Zm1.142,4.757-1.7,5.07-2.556-1.753-3.434,1.4,1.619-5.039,3.638-1.447,2.437,1.768Zm5.232-15.3,2.113,1.236-2.6,3.74-2.036-1.416-4.073,1.479,2.488-3.849,4.107-1.189Zm-.673-1.3,2.335-2.394,3.374-1.017,1.764.908-3.042,2.926-1.67-1.08-2.761.657Zm-.239,9.639,2.3,1.6,4-1.33-1.934,4.522-4.073,1.573-2.513-1.784Zm5.913-2.066-2.454.712-2.19-1.643,2.556-3.646,1.857,1.181,2.761-.54-2.53,3.935Zm1.781-5.649-2.215-1.189,2.982-2.887,1.619.837,4.439-.775-2.6,2.887-4.226,1.127Zm14.578-6.306-4.737.376,2.13-1.909,4.993-.274a24.442,24.442,0,0,0-2.386,1.807Zm-5.709-3,.7.438,2.019-.626,3.885-.094-2.3,1.181-3.877.18-2.053-.344,1.627-.735Zm-2.3,2.065,3.1-.047L362.74,4.452l-2.5.415-1.926-.759,2.982-1.948Zm-8.188-.321,2.931-.391,3.238.094L357.406,3.9l-2.113-.6-3.86.782,2.786-1.768Zm-7.932,2.066c.3-.18.63-.376.946-.524l1.508-.063.051-.469L351.434,3,348.912,4.8l-4.771,1.119a17.38,17.38,0,0,1,2.147-1.533Zm-5.436,4.765.869-.892c.145-.149.307-.329.46-.462a7.023,7.023,0,0,1,1.278-.376l.46-.094.034-.485,4.771-.97L345.989,8.5l-6.33,1.886c.4-.415.792-.829,1.193-1.244Zm-5.2,7.386-.009-.016q.588-.88,1.15-1.76c.29-.446.571-.884.852-1.33.1-.156.2-.313.3-.477.026-.047.06-.094.085-.149a11.2,11.2,0,0,1,1.4-.376l.588-.117-.026-.164,2.59-.743-2.4,3.529-4.524,1.6Zm-3.4,7.221-.034-.047c.29-.7.588-1.408.886-2.112l.639-1.5c.085-.18.162-.352.239-.532.034-.063.06-.133.094-.2A11.44,11.44,0,0,1,336,18.722l.716-.188-.077-.149,3.647-1.2-2.1,4.287-5.93,2.277Zm-2.394,7.988-.17-.078c.2-.712.409-1.432.613-2.152l.486-1.667c.051-.2.1-.391.162-.587.009-.031.017-.063.026-.1.094-.047.2-.1.281-.133.239-.117.486-.227.733-.329.29-.125.579-.25.878-.368l.579-.227.639-.25,1.389-.548-1.619,4.827-4,1.612Zm-.563,8.152-1.056-.039.307-2.136c.085-.563.162-1.127.247-1.69.034-.2.06-.4.094-.595.009-.031.009-.055.017-.086l5.487-2.441-.929,5.258L329.3,39.894Zm10.148,7.37-2.829-1.831-4.234,1.745.5-5.445,4.218-1.972L339.94,41.9Zm1.176-8.6-2.982-2.159-2.224.876.716-5.062,2.471-1.134,3.059,2.128Zm7.523,1.15L344.4,41.286l-2.641-1.932.971-5.383,2.386,1.823,3.843-1.44-.809,5.461Zm.145-8.567L345.913,32.3l-2.761-2.1,1.585-4.82,2.156,1.643,2.675-.54-1.278,4.773Zm6.041,6.384-4.413,1.573.758-5.5,4.771-1.831C355,33.791,354.629,35.708,354.331,37.633Zm3.476-13.84c-.6,1.682-1.133,3.38-1.6,5.086l-5.7,1.627,1-4.467,6.313-2.277-.009.031Zm1.321-3.435-4.533,1.455,1.738-4.538,4.95-1.541c-.792,1.518-1.508,3.067-2.156,4.624Zm3.323-6.775-5.777,1.432,2.5-4.123,5.734-1.158c-.324.454-.63.908-.929,1.361-.537.814-1.039,1.643-1.534,2.488Z" transform="translate(-327.211 0)" fill="#dd4d05"/>
      <path id="Path_10480" data-name="Path 10480" d="M454.83,24.427c-4.337,0-8.75,3.521-12.38,9.2a56.646,56.646,0,0,0-7.711,22.478,59.736,59.736,0,0,0-.545,8.8h2.846a50.6,50.6,0,0,1,.426-8.8c2.011-15.037,9.977-27.235,17.79-27.235,3.366,0,6.16,2.261,8.077,6.04h1.943c-1.738-5.86-4.916-10.484-10.446-10.484Z" transform="translate(-400.301 -16.689)" fill="#dd4d05"/>
    </g>
  </g>
</svg>
