<?xml version="1.0" encoding="UTF-8"?>
<svg id="a" data-name="Layer 1" xmlns="http://www.w3.org/2000/svg" viewBox="0 0 897.6895 222.3324">
  <text transform="translate(.1003 192.5261)" style="fill: #3f3f3f; font-family: DesignerRegular, Designer; font-size: 109.1828px;"><tspan x="0" y="0" style="letter-spacing: -.032em;">R</tspan><tspan x="86.7998" y="0" style="letter-spacing: -.041em;">O</tspan><tspan x="176.9849" y="0" style="letter-spacing: -.128em;">A</tspan><tspan x="255.5967" y="0" style="letter-spacing: -.127em;">T</tspan><tspan x="319.0322" y="0" style="letter-spacing: -.032em;">A</tspan></text>
  <text transform="translate(619.1199 192.5261)" style="fill: #3f3f3f; font-family: DesignerRegular, Designer; font-size: 109.1828px;"><tspan x="0" y="0" style="letter-spacing: -.115em;">W</tspan><tspan x="115.1885" y="0" style="letter-spacing: -.128em;">A</tspan><tspan x="193.7998" y="0" style="letter-spacing: -.032em;">Y</tspan></text>
  <path d="M626.0604.0649l-3.3517,1.6199-3.6342-1.6848-23.6039.5832-7.6209,2.3652-2.7874-1.7497-21.4515,1.8143-5.5747,2.1709-2.6462-1.5553s-10.3377.2917-23.6392,2.9808c0,0-9.2793,2.3975-15.242,5.2486l-.3527,2.9482-4.5162.1944s-7.1269,3.2074-15.242,10.2705l-.3174,4.5033s-5.3277,1.1341-6.4214,2.106c-1.1291.9395-11.4668,11.8256-11.4668,11.8256l1.2701,6.8036s-6.9858,1.4256-7.3739,2.4299c-.3883,1.0044-10.6907,16.6854-10.6907,16.6854l3.6693,6.998s-8.5736,2.1707-9.4203,3.5962c-.8821,1.4256-8.4325,19.6336-8.4325,19.6336l6.5978,7.5814s-11.0081,4.2767-11.1844,5.1513c-.1764.9073-5.9627,20.8972-5.9627,20.8972l7.0918,3.175-.6704,5.3783s-8.8559,3.7906-9.0676,4.3737c-.247.5509-3.2459,21.7072-3.2459,21.7072l5.9274.2592,1.5877,1.717-.9174,8.3589-7.3741,3.2399-.7761,17.9812h8.9616c-.0704-.0647-.1411-.162-.2117-.2268-.5997-1.069-1.9052-1.0366-3.1049-.9071-.8114.0649-1.6229.1944-2.3992.3239-.2821.0324-.5644.0649-.8467.1297l.7763-17.1715,7.2682-3.2074.0351-.162,7.6564-3.337-1.7641,21.5775-7.4094,2.9806h49.1483l-2.3992-1.458,2.2581-22.9381,10.6553,8.6828,10.1967-4.3091-.5646,20.0224h6.739l.6704-22.4847,25.0504-9.6872c-.9527,7.9377-1.5877,15.843-1.9405,23.7483l-23.0748,8.4236h25.0153c.2117-11.5664,1.0937-23.5862,2.7519-35.9301,6.0334-45.1638,21.1343-86.1158,40.61-115.8254,16.7591-25.4655,36.8348-42.7339,57.3691-47.4318-7.2328-.2268-14.6069-.4212-14.6069-.4212ZM584.4979,2.3652l2.8932,1.8143,8.3619-2.5919,16.0887-.389-9.5263,4.8922-16.0534.7453-8.5032-1.4256,6.739-3.0455ZM574.9717,10.9183l12.8428-.1944-11.4668,7.7109-10.373,1.7172-7.9738-3.1428,12.3488-8.0672,4.622,1.9763ZM493.2929,82.0011l-10.9728,4.3415,8.2208-17.5925,11.7491-4.5359,10.126,6.4797-9.0676,18.9209-10.0556-7.6138ZM498.0209,101.6996l-7.0565,20.9943-10.5847-7.2573-14.2189,5.7995,6.7037-20.8648,15.0656-5.9939,10.0907,7.3221ZM519.6843,38.3277l8.75,5.1191-10.7611,15.4865-8.4325-5.8642-16.8649,6.1234,10.3024-15.9401,17.0061-4.9247ZM516.8968,32.9496l9.6675-9.914,13.9717-4.212,7.3035,3.7584-12.5958,12.1171-6.9152-4.471-11.4317,2.7216ZM515.909,72.8649l9.5263,6.6093,16.5825-5.5078-8.0089,18.7265-16.8651,6.512-10.4083-7.3868,9.1735-18.9532ZM540.395,64.3115l-10.1613,2.9482-9.0676-6.8036,10.5847-15.0979,7.6915,4.8922,11.4314-2.2355-10.4788,16.2966ZM547.7689,40.9196l-9.1733-4.9245,12.3488-11.9551,6.7037,3.4667,18.382-3.2076-10.7611,11.9551-17.5001,4.6654ZM541.0654,9.5901l12.1371-1.6199,13.4072.3888-12.3488,7.8082-8.75-2.4948-15.983,3.2399,11.5374-7.3221ZM508.2175,18.1434c1.2348-.7453,2.6109-1.5553,3.9163-2.1709l6.245-.259.2117-1.944,10.9374-1.3283-10.4437,7.4192-19.758,4.633c2.7872-2.3326,5.7864-4.471,8.8912-6.35ZM485.7073,37.8741c1.1995-1.2312,2.3992-2.4623,3.5989-3.6933.5997-.6156,1.2701-1.3609,1.9052-1.9116.9174-.5507,4.128-1.296,5.2924-1.5551l1.9052-.3888.1413-2.0087,19.758-4.0176-11.3257,10.9183-26.2148,7.8082c1.6584-1.7172,3.2812-3.4343,4.9396-5.1515ZM464.185,68.4585l-.0351-.0647c1.6229-2.4299,3.2106-4.8598,4.763-7.2897,1.1997-1.8467,2.3639-3.6611,3.5282-5.5078.4234-.648.8114-1.296,1.2348-1.9763.106-.1944.247-.389.353-.6156,1.3054-.5509,4.6926-1.3285,5.7864-1.5553l2.4345-.4859-.106-.6804,10.7258-3.0779-9.9496,14.6118-18.7349,6.6417ZM450.1074,98.3626l-.1411-.1944c1.1995-2.916,2.4345-5.8319,3.6693-8.7477l2.6462-6.2207c.353-.7451.6704-1.4578.988-2.2031.1411-.259.247-.5507.3881-.81,1.3761-.8746,6.4567-2.2678,7.9385-2.6567l2.9638-.7775-.3176-.6156,15.1009-4.9569-8.6795,17.7544-24.5566,9.4281ZM440.193,131.4416l-.7057-.3239c.847-2.9484,1.6937-5.929,2.5404-8.9096.6704-2.3004,1.3407-4.6006,2.0111-6.9009.2117-.81.4234-1.6199.6704-2.4299.0353-.1295.0704-.2592.1057-.4212.3883-.1944.8467-.4212,1.1644-.5507.988-.4861,2.0111-.9397,3.0342-1.3609,1.1997-.5183,2.3992-1.0366,3.6342-1.5226l2.3992-.9395,2.6462-1.0368,5.751-2.2679-6.7037,19.9899-16.5474,6.6741ZM437.8645,165.2012l-4.375-.1622c.4234-2.9482.8467-5.8966,1.2701-8.8448.3527-2.3326.6704-4.6654,1.0231-6.998.1413-.81.247-1.6524.3881-2.4623.0353-.1297.0353-.2268.0706-.3565l22.7218-10.1084-3.8457,21.772-17.2531,7.1602ZM479.8857,195.7207l-11.7138-7.5814-17.5352,7.225,2.0815-22.5496,17.4648-8.1645,11.7491,8.845-2.0464,22.2255ZM484.7547,160.1145l-12.3488-8.9421-9.2086,3.6286,2.9636-20.9621,10.232-4.6977,12.6665,8.8124-4.3046,22.1608ZM515.909,164.8771l-15.5243,6.091-10.9374-8.0024,4.0222-22.2903,9.879,7.5488,15.9124-5.9613-3.3519,22.6142ZM516.5088,129.4004l-9.8437,4.3415-11.4314-8.7153,6.5625-19.9577,8.9263,6.8038,11.0787-2.2355-5.2924,19.7631ZM541.5241,155.8379l-18.2762,6.5122,3.14-22.7764,19.7582-7.5812c-1.8701,7.9375-3.3872,15.8752-4.622,23.8454ZM555.9191,98.5246c-2.5049,6.9656-4.6924,13.9963-6.6329,21.0592l-23.6039,6.739,4.128-18.4997,26.1441-9.4281-.0353.1297ZM561.388,84.3015l-18.7702,6.0261,7.1975-18.7912,20.499-6.3825c-3.2812,6.2854-6.245,12.7002-8.9263,19.1475ZM581.4988,45.9413c-2.2226,3.3696-4.3043,6.8038-6.3508,10.303l-23.9213,5.9288,10.373-17.074,23.745-4.7951c-1.3407,1.8792-2.6109,3.7584-3.8459,5.6373ZM591.0251,32.7875l-16.5474,2.754,10.62-12.8624,17.1472-2.3975c-4.0573,3.9852-7.7973,8.2294-11.2198,12.5059ZM608.1371,14.8062l-19.617,1.5553,8.8206-7.9053,20.6754-1.1341c-3.4225,2.2679-6.739,4.7951-9.879,7.4841ZM655.0273,32.0424c-17.9588,0-36.235,14.5794-51.2654,38.1009-15.2067,23.813-27.0615,56.6977-31.9305,93.0814-1.6935,12.668-2.4345,24.8822-2.2579,36.4485h11.7842c-.494-11.4366.0706-23.6834,1.7641-36.4485,8.3266-62.2702,41.3157-112.7799,73.6696-112.7799,13.9366,0,25.5091,9.3633,33.4476,25.0119h8.0445c-7.1977-24.2666-20.358-43.4143-43.2562-43.4143ZM708.6565,55.7258l-6.9154-2.4623,3.5282-5.9288-6.6684-13.9963-5.7861-1.2636,1.7288-5.4754-8.9265-10.2703-5.3277-.81.6353-3.3696-10.1967-6.8685-5.1513.1944-1.0584-2.6567c-15.9477-4.1145-33.8006,2.5596-47.2784,12.7651-10.7964,8.1645-21.0988,19.7958-30.4487,33.9864-19.1583,29.1911-34.012,69.5599-39.9747,114.173-1.6584,12.3439-2.5404,24.3961-2.7168,35.9301h22.9688c-.1411-11.5664.5997-23.813,2.2932-36.4485,4.9043-36.7076,16.8651-69.9487,32.2834-94.0209,15.5596-24.3639,34.6826-39.4294,53.6998-39.4294,24.38,0,37.9636,20.2492,45.0907,45.6823h8.8559l3.1049-3.6935-3.7399-16.0374Z" style="fill: #dd4d05; fill-rule: evenodd; stroke-width: 0px;"/>
</svg>